<svg width="100" height="100" viewBox="0 0 100 100" fill="none" xmlns="http://www.w3.org/2000/svg">
<g clip-path="url(#clip0_170_445)">
<path d="M49.5 2L49.1207 1.67421L49.5 1.23261L49.8793 1.67421L49.5 2ZM49.5 2C49.8793 1.67421 49.8795 1.67442 49.8798 1.67478L49.8811 1.67632L49.8862 1.6823L49.9063 1.70578L49.9852 1.79812C50.0547 1.87961 50.1576 2.00062 50.2917 2.15916C50.5599 2.47625 50.9529 2.94347 51.4529 3.5449C52.4528 4.74773 53.8808 6.48752 55.5941 8.63678C59.0204 12.9348 63.5898 18.8727 68.1602 25.4303C72.7294 31.986 77.3063 39.1706 80.743 45.9608C84.1707 52.7332 86.5 59.1814 86.5 64.2432C86.5 84.2769 69.9248 100.5 49.5 100.5C29.0752 100.5 12.5 84.2769 12.5 64.2432C12.5 59.1814 14.8293 52.7332 18.257 45.9608C21.6937 39.1706 26.2706 31.986 30.8398 25.4303C35.4102 18.8727 39.9796 12.9348 43.4059 8.63678C45.1192 6.48752 46.5472 4.74773 47.5471 3.5449C48.0471 2.94347 48.4401 2.47625 48.7083 2.15916C48.8424 2.00062 48.9453 1.87961 49.0148 1.79812L49.0937 1.70578L49.1138 1.6823L49.1189 1.67632L49.1202 1.67478C49.1205 1.67442 49.1207 1.67421 49.5 2Z" fill="black" stroke="white"/>
</g>
<defs>
<clipPath id="clip0_170_445">
<rect width="100" height="100" fill="white"/>
</clipPath>
</defs>
</svg>
