<svg width="100" height="100" viewBox="0 0 100 100" fill="none" xmlns="http://www.w3.org/2000/svg">
<g clip-path="url(#clip0_170_464)">
<path fill-rule="evenodd" clip-rule="evenodd" d="M70.8061 0.182703C63.6798 0.980752 57.9267 3.4843 54.7628 7.16432C51.7095 10.7154 50.218 14.5253 50.2152 18.7811C50.2135 21.4964 50.6051 23.2392 51.7389 25.5595C52.4935 27.1044 52.9264 27.696 54.3223 29.0903C55.6826 30.4488 56.3392 30.9345 57.7987 31.6616C58.7883 32.1545 60.1121 32.663 60.7404 32.7914C61.3688 32.9199 62.0101 33.0633 62.1656 33.11C62.3505 33.1657 61.6383 34.0044 60.1097 35.5311L57.7708 37.8668L50.3151 30.4572C43.8097 23.9919 42.7657 23.0306 42.1241 22.9143C41.106 22.7297 40.1311 22.9483 39.4586 23.5121C38.6738 24.1699 38.3788 24.9814 38.4933 26.168C38.6 27.2744 37.7744 26.3788 49.5765 38.1921C51.6528 40.2706 53.3517 42.0353 53.3517 42.1138C53.3517 42.1925 52.3613 43.2461 51.1507 44.4556L48.9497 46.6542L43.3551 41.1053C38.5377 36.3272 37.6583 35.5374 37.025 35.4201C35.9015 35.2123 34.9228 35.4778 34.2155 36.1824C33.6136 36.782 33.096 38.027 33.2451 38.5168C33.2837 38.643 33.3735 39.0101 33.4449 39.3324C33.539 39.7568 35.0988 41.4427 39.0942 45.4398L44.6136 50.9609L42.369 53.2033L40.1242 55.4456L36.8789 52.2329C34.8164 50.1912 33.3576 48.9053 32.8773 48.7055C30.5104 47.7203 28.1097 50.1945 29.0468 52.6531C29.1621 52.9555 30.7265 54.6771 32.5236 56.4785L35.7907 59.7541L33.6859 61.8509L31.5812 63.9479L16.8827 65.1455C0.757357 66.4593 1.38944 66.3593 0.449846 67.7481C-0.151839 68.6376 -0.149682 70.0063 0.454749 70.8998C0.782657 71.3843 3.08565 72.9203 9.09781 76.664C13.6057 79.4709 17.4218 81.8946 17.5779 82.0503C17.734 82.2058 20.1768 86.1054 23.0062 90.7159C26.8762 97.0219 28.3159 99.2096 28.8171 99.5454C29.7177 100.149 31.0907 100.152 31.9844 99.5519C32.1928 99.412 32.3675 99.3079 32.5183 99.1766C33.3698 98.4358 33.4627 96.83 34.5683 83.0468L35.7554 68.2459L37.8801 66.1035L40.0048 63.961L43.399 67.3075C46.2225 70.0912 46.916 70.6769 47.5229 70.7904C48.6394 70.9991 49.6198 70.7326 50.3268 70.0283C50.9287 69.4288 51.4463 68.1837 51.2972 67.694C51.2586 67.5678 51.1695 67.2048 51.0989 66.8873C51.0109 66.4909 49.9326 65.2652 47.6547 62.9727L44.3388 59.6351L46.5908 57.3983L48.843 55.1612L54.1862 60.456C57.125 63.3681 59.7477 65.8947 60.0144 66.0703C60.7467 66.5531 62.3619 66.4913 63.1578 65.9504C64.408 65.1002 64.8601 63.5121 64.2172 62.2287C64.0448 61.8849 61.4851 59.185 58.5288 56.229L53.1537 50.8542L55.4098 48.6133L57.6659 46.3721L64.9714 53.635C68.9895 57.6296 72.5255 60.9907 72.8291 61.1042C74.3713 61.6806 75.9879 61.1177 76.6818 59.7631C77.1628 58.8238 77.1905 57.9916 76.7687 57.1494C76.5965 56.8055 73.1983 53.2705 69.2172 49.2939L61.9787 42.0634L64.3209 39.7363C66.6535 37.4189 66.6637 37.4117 66.7906 37.9802C67.5143 41.2228 68.61 43.3028 70.7035 45.4078C72.4527 47.1664 74.0879 48.1784 76.4607 48.9704C77.8036 49.4185 78.2791 49.473 80.9061 49.4793C84.0473 49.4867 84.8773 49.3347 87.476 48.2757C89.5305 47.4386 91.3474 46.2713 93.01 44.7203C94.9139 42.9443 96.0399 41.4005 97.1746 39.0105C99.0381 35.0855 99.8294 31.0843 99.9757 24.8466C100.12 18.6797 99.6241 13.2098 98.3234 6.64075C97.7692 3.8422 97.4048 3.06447 96.3636 2.45885C95.2566 1.81475 88.2068 0.618748 82.8673 0.169418C80.1128 -0.0624754 72.9242 -0.054661 70.8061 0.182703ZM78.8022 12.9724C78.8981 11.7797 78.3499 10.8113 77.274 10.2729C76.3954 9.83314 75.5796 9.83939 74.7318 10.2922C73.8045 10.7877 73.3309 11.4822 73.2136 12.518C73.0142 14.2803 74.2036 15.5961 75.9961 15.5961C77.6353 15.5961 78.6688 14.6298 78.8022 12.9724Z" fill="black"/>
</g>
<defs>
<clipPath id="clip0_170_464">
<rect width="100" height="100" fill="white"/>
</clipPath>
</defs>
</svg>
