<svg width="100" height="100" viewBox="0 0 100 100" fill="none" xmlns="http://www.w3.org/2000/svg">
<path fill-rule="evenodd" clip-rule="evenodd" d="M21.6278 11.7911C21.8545 11.2621 22.0906 10.9906 22.8509 10.2306C24.5935 8.48817 27.4181 8.48817 29.1606 10.2306C30.9032 11.9731 30.9032 14.7982 29.1606 16.5407L26.0058 19.6957L35.791 29.4807C34.5589 30.2953 33.3953 31.2364 32.3161 32.3158C31.2363 33.3953 30.2952 34.5589 29.4807 35.7908L19.6955 26.0058L16.5407 29.1608C14.7981 30.9033 11.9729 30.9033 10.231 29.1608C8.48844 27.4184 8.48844 24.5933 10.231 22.8508C10.9907 22.0909 11.2619 21.8544 11.7914 21.6278C12.4095 21.3626 13.7154 21.0026 16.5407 21.0026H21.0025V16.5407C21.0025 13.7156 21.3625 12.4098 21.6278 11.7911ZM25.816 44.746C24.5673 50.5221 24.9052 56.8211 26.0932 62.6441C28.273 73.3283 33.613 84.0933 40.0601 90.5404C53.4041 103.884 75.3695 102.843 89.1064 89.1067C102.843 75.3694 103.884 53.4039 90.5405 40.0598C84.0936 33.6131 73.3285 28.2728 62.6442 26.0931C56.8208 24.905 50.5224 24.567 44.7457 25.8157L38.0874 19.1571C40.4641 14.1816 39.5919 8.04175 35.4709 3.92057C30.2434 -1.30686 21.7682 -1.30686 16.5407 3.92057C16.5198 3.94163 16.4984 3.96299 16.4764 3.9847C15.6542 4.80605 14.3573 6.1016 13.4257 8.27585C12.9182 9.4598 12.5601 10.7953 12.3417 12.3415C10.7955 12.5602 9.45994 12.9181 8.27605 13.4255C6.10163 14.3573 4.80589 15.6543 3.98491 16.4766C3.96289 16.4983 3.94148 16.5196 3.92066 16.5407C-1.30689 21.7681 -1.30689 30.2434 3.92066 35.4709C8.04165 39.5922 14.1818 40.4644 19.1571 38.0871L25.816 44.746Z" fill="black"/>
</svg>
