<svg width="100" height="100" viewBox="0 0 100 100" fill="none" xmlns="http://www.w3.org/2000/svg">
<g clip-path="url(#clip0_170_467)">
<path fill-rule="evenodd" clip-rule="evenodd" d="M0 8.14146C0.0021485 8.58639 4.58855 19.9304 5.12137 20.8086C5.47313 21.3886 6.50811 22.5866 7.42121 23.4712C9.33472 25.3249 11.3303 26.4475 13.793 27.0558C13.8638 27.0732 13.9325 27.0903 13.9993 27.1068C15.1334 27.3878 15.6863 27.5248 16.0726 27.3305C16.4402 27.1457 16.657 26.6611 17.08 25.7154C17.1061 25.657 17.133 25.5968 17.1608 25.5348C18.8687 21.7258 21.5287 17.9958 24.6781 14.9937L26.3442 13.4054L22.6115 10.7028L18.8786 8H9.43901C4.24714 8 -0.000390604 8.06356 0 8.14146ZM77.3889 10.7026L73.6562 13.405L75.5068 15.1821C78.6092 18.1612 81.3468 22.0613 82.9384 25.7694L82.9725 25.849C83.3335 26.6903 83.527 27.1413 83.8655 27.3252C84.2569 27.5376 84.8422 27.393 86.104 27.0812L86.207 27.0558C88.6697 26.4475 90.6653 25.3249 92.5788 23.4712C93.4919 22.5866 94.5269 21.3886 94.8786 20.8086C95.4115 19.9304 99.9979 8.58639 100 8.14146C100 8.06356 95.7529 8 90.561 8H81.1214L77.3889 10.7026ZM47.5586 10.4678C37.3334 11.2279 27.968 17.2387 23.282 26.0491C21.9681 28.5196 21.7343 29.1539 18.9448 37.8239L16.5403 45.2975L15.0569 46.7835C10.4273 51.422 9.39136 52.5224 8.70502 53.5305C1.61858 63.9396 5.36551 77.7959 16.7647 83.3352C18.4358 84.1474 27.1809 87.4636 29.8825 88.3095C36.0174 90.2307 41.5061 91.1266 48.2422 91.3059C55.8983 91.5098 62.8182 90.579 69.8245 88.4025C72.6492 87.525 81.5239 84.1768 83.2843 83.3245C93.5386 78.3595 97.8627 65.9206 92.7641 56.0541C91.4799 53.5688 90.6954 52.5875 86.9875 48.83L83.447 45.242L80.987 37.6076C78.2256 29.0382 77.9661 28.3428 76.5782 25.797C75.2065 23.2809 73.658 21.2501 71.4847 19.1175C65.1325 12.8839 56.5919 9.79633 47.5586 10.4678ZM62.1432 47.1164C74.9623 50.2566 79.863 65.2014 71.2552 74.9034C69.1271 77.3021 66.1321 79.1679 62.7836 80.1807L61.0353 80.7096H50H38.9647L37.2482 80.1896C34.1128 79.2399 31.6286 77.7831 29.4085 75.5922C24.1303 70.3839 22.914 62.3381 26.4211 55.8286C28.7337 51.5362 32.8909 48.346 37.7543 47.1321C39.5332 46.6881 39.6514 46.6838 49.9262 46.6745C60.2402 46.6653 60.3125 46.6679 62.1432 47.1164ZM39.2576 52.4322C35.3277 53.4289 31.9485 56.4902 30.7479 60.1413C29.7344 63.2236 29.9596 65.9536 31.4718 68.915C32.5204 70.9689 34.6289 73.0669 36.5232 73.9413C36.6458 73.9978 36.7621 74.0519 36.8734 74.1037C37.4403 74.3673 37.876 74.5698 38.3278 74.7254C39.8277 75.2421 41.5056 75.2417 48.7534 75.2401C49.1817 75.24 49.6294 75.2399 50.0977 75.2399H60.2541L61.8547 74.6438C64.9752 73.4818 67.1569 71.6012 68.5503 68.8723C70.0398 65.9547 70.2605 63.2084 69.2521 60.1413C68.0321 56.4312 64.661 53.4047 60.6525 52.4207C58.9824 52.0107 40.8811 52.0205 39.2576 52.4322ZM44.7265 63.7346V66.4694H41.8944H39.0623V63.7346V60.9997H41.8944H44.7265V63.7346ZM60.3517 63.7346V66.4694H57.5196H54.6876V63.7346V60.9997H57.5196H60.3517V63.7346ZM33.3333 37.1667C33.3333 34.8655 35.1988 33 37.5 33C39.8012 33 41.6667 34.8655 41.6667 37.1667C41.6667 39.4679 39.8012 41.3333 37.5 41.3333C35.1988 41.3333 33.3333 39.4679 33.3333 37.1667ZM62.5 33C60.1988 33 58.3333 34.8655 58.3333 37.1667C58.3333 39.4679 60.1988 41.3333 62.5 41.3333C64.8012 41.3333 66.6667 39.4679 66.6667 37.1667C66.6667 34.8655 64.8012 33 62.5 33Z" fill="black"/>
</g>
<defs>
<clipPath id="clip0_170_467">
<rect width="100" height="100" fill="white"/>
</clipPath>
</defs>
</svg>
