<svg class="img-fluid" id="outputsvg" xmlns="http://www.w3.org/2000/svg" style="transform: none; transform-origin: 50% 50%; cursor: move; max-height: none;" width="1026" height="1026" viewBox="0 0 10260 10260"><g id="l1X13Zx4rl0PNunP6jsg4VM" fill="rgb(255,255,255)" style="transform: none;"><g style="transform: none;"><path id="pYmdWfKxL" d="M0 5130 l0 -5130 5130 0 5130 0 0 5130 0 5130 -5130 0 -5130 0 0 -5130z m5565 5060 c28 -5 102 -18 165 -28 239 -40 299 -54 515 -118 963 -286 1792 -943 2304 -1823 40 -68 97 -176 127 -240 30 -64 61 -129 69 -144 8 -16 15 -33 15 -38 0 -5 9 -31 21 -57 12 -26 25 -56 29 -67 4 -11 17 -40 28 -65 67 -155 164 -545 203 -815 20 -140 39 -413 39 -560 0 -326 -42 -797 -104 -1155 -58 -333 -187 -817 -290 -1088 -20 -52 -36 -98 -36 -104 0 -5 -6 -24 -14 -41 -8 -18 -40 -93 -71 -167 -79 -189 -228 -499 -293 -612 -12 -21 -38 -68 -58 -105 -48 -88 -221 -365 -292 -468 -72 -105 -283 -385 -341 -454 -135 -158 -292 -330 -403 -438 -166 -164 -226 -189 -335 -142 -124 53 -170 125 -203 319 -20 122 -80 372 -118 495 -18 59 -18 60 -59 63 -37 3 -41 1 -53 -30 -17 -43 -97 -216 -114 -248 -8 -14 -25 -45 -38 -70 -229 -424 -518 -777 -893 -1093 -312 -263 -623 -456 -1010 -627 -223 -98 -511 -199 -625 -220 -112 -20 -221 38 -277 149 -36 69 -40 104 -23 206 16 101 39 352 50 546 17 321 18 326 51 364 17 19 45 39 63 45 21 7 36 19 40 33 3 12 6 91 6 175 l0 152 -27 11 c-119 47 -117 44 -149 434 -20 251 -67 586 -113 810 -40 190 -61 277 -101 420 -17 58 -29 100 -35 125 -4 14 -22 68 -40 120 -18 52 -36 107 -39 123 -6 24 -11 27 -50 27 -42 0 -44 -1 -109 -88 -140 -186 -338 -373 -536 -506 -162 -109 -487 -259 -591 -273 -89 -12 -204 56 -257 152 -41 76 -42 118 -4 235 44 132 54 225 48 428 -4 126 -12 218 -30 317 -24 133 -33 174 -72 325 -9 36 -21 81 -25 100 -5 19 -13 51 -19 70 -6 19 -19 69 -30 110 -54 208 -83 315 -86 320 -7 11 -68 283 -104 460 -114 562 -117 1041 -11 1577 45 228 128 517 183 643 41 94 55 127 62 150 11 36 143 300 199 399 350 615 883 1141 1511 1494 130 72 391 199 480 232 397 149 762 234 1135 265 116 10 666 2 735 -10z"></path></g></g><g id="l2VZbkpNmufKC3XGCOTtgNs" fill="rgb(254,195,125)" style="transform: none;"><g style="transform: none;"><path id="p14BVDqkz1" d="M4915 9973 c-87 -5 -372 -41 -491 -63 -334 -62 -741 -201 -1015 -348 -373 -199 -666 -418 -944 -704 -183 -187 -321 -360 -480 -603 -67 -103 -248 -452 -295 -570 -179 -451 -270 -927 -270 -1423 0 -191 5 -262 31 -487 12 -105 56 -374 69 -425 5 -19 16 -66 25 -105 24 -107 71 -296 110 -440 20 -71 45 -164 56 -205 176 -652 206 -959 123 -1258 -13 -48 -24 -106 -24 -129 l0 -43 43 0 c48 0 186 49 302 108 121 61 279 169 385 264 193 173 304 320 474 628 8 14 33 36 55 49 36 20 46 21 70 11 62 -25 80 -59 189 -350 21 -58 42 -118 46 -135 4 -16 13 -43 20 -60 19 -46 64 -185 75 -230 5 -22 27 -112 50 -200 106 -418 178 -894 198 -1310 l6 -120 -40 -41 c-27 -27 -53 -44 -77 -48 -41 -8 -46 -20 -15 -36 19 -11 20 -18 17 -151 -3 -121 -5 -142 -20 -150 -27 -15 -22 -29 10 -29 39 0 101 -46 119 -87 11 -28 13 -63 8 -167 -8 -180 -23 -374 -43 -546 -9 -80 -17 -176 -17 -215 l0 -70 32 -3 c32 -3 77 9 258 70 243 82 596 242 784 355 482 291 871 663 1176 1128 89 135 285 512 285 548 0 7 4 17 9 23 13 12 106 293 122 366 21 99 104 160 166 123 49 -29 77 -84 168 -335 15 -41 33 -91 40 -110 41 -111 104 -356 146 -570 17 -85 33 -161 35 -167 2 -8 21 -13 46 -13 42 0 47 4 154 112 424 432 800 965 1084 1538 54 107 105 213 115 235 38 87 53 121 65 155 7 19 17 39 22 45 4 5 8 15 8 22 0 7 9 32 19 56 55 121 126 330 195 571 242 841 313 1857 181 2560 -13 67 -55 241 -85 351 -12 44 -89 262 -114 325 -133 328 -314 634 -546 926 -129 162 -416 448 -579 578 -395 315 -862 551 -1326 671 -71 18 -156 41 -187 49 -207 56 -714 95 -1023 79z m515 -293 c353 -53 607 -129 881 -265 585 -291 1066 -799 1323 -1395 32 -76 129 -364 145 -433 49 -207 81 -468 81 -651 0 -278 -72 -875 -119 -986 -23 -55 -61 -81 -131 -90 -43 -5 -45 -7 -48 -40 -2 -19 -8 -40 -14 -47 -14 -18 -50 -149 -55 -203 -4 -43 -2 -47 35 -77 50 -40 64 -77 47 -124 -52 -141 -80 -209 -128 -315 -64 -140 -193 -392 -213 -415 -8 -8 -14 -19 -14 -23 0 -13 -168 -261 -201 -297 -53 -56 -113 -83 -185 -83 -118 1 -195 64 -294 239 -30 54 -84 134 -121 179 -62 78 -67 81 -110 84 -45 3 -45 3 -120 -80 -268 -297 -439 -599 -523 -923 -21 -83 -35 -171 -46 -295 -14 -157 -68 -249 -174 -298 -104 -49 -160 -39 -391 73 -627 304 -1052 861 -1260 1650 l-32 120 -42 3 c-33 3 -52 -3 -89 -27 -103 -66 -312 -144 -452 -170 -166 -30 -203 -32 -260 -15 -99 29 -176 104 -206 199 -17 53 -17 58 6 172 18 95 23 151 23 288 0 258 -29 386 -183 820 -91 258 -133 425 -152 612 -29 291 59 802 188 1090 8 17 14 34 14 37 0 14 114 246 157 321 179 309 391 551 698 801 174 142 491 320 725 407 230 85 517 150 755 171 84 7 406 -2 485 -14z"></path></g></g><g id="l7LZoSvcMGmgLUGJGkJThuO" fill="rgb(242,99,101)" style="transform: none;"><g style="transform: none;"><path id="pL2D90DSa" d="M4860 9450 c-14 -4 -53 -8 -87 -9 -34 -1 -65 -5 -68 -11 -3 -5 -18 -10 -33 -10 -30 0 -264 -58 -357 -88 -247 -81 -521 -231 -748 -409 -85 -66 -336 -316 -395 -393 -98 -129 -302 -455 -302 -485 0 -4 -14 -37 -31 -73 -119 -254 -199 -651 -199 -980 0 -233 40 -420 159 -747 64 -176 124 -375 153 -510 29 -135 35 -393 12 -515 -9 -52 -18 -122 -18 -155 l-1 -60 80 2 c44 1 98 7 120 12 22 6 72 18 110 27 176 41 294 104 387 206 37 40 85 92 107 116 51 56 86 57 142 4 41 -37 41 -39 65 -177 74 -424 187 -741 374 -1046 78 -125 155 -224 270 -343 165 -170 341 -298 538 -392 114 -54 157 -67 202 -62 l35 3 7 70 c12 112 38 264 60 345 83 312 241 616 462 890 88 109 319 338 357 354 39 17 47 14 124 -37 134 -88 257 -235 379 -450 27 -47 28 -48 73 -45 l45 3 88 141 c132 209 277 498 356 709 21 55 46 112 56 126 23 35 76 59 129 59 41 0 42 1 25 19 -18 20 -14 61 5 61 6 0 10 10 9 23 -1 12 -1 24 0 27 1 3 4 18 6 33 3 16 14 45 24 65 11 20 17 45 14 55 -4 13 0 20 15 24 32 8 25 26 -24 61 -66 46 -71 66 -46 192 76 399 102 847 66 1165 -80 719 -449 1341 -1055 1781 -68 50 -259 164 -320 192 -391 177 -689 241 -1115 241 -126 -1 -241 -5 -255 -9z m421 -1906 c41 -13 102 -41 135 -62 64 -42 138 -116 148 -150 10 -31 -27 -95 -67 -116 -44 -24 -76 -16 -130 33 -77 71 -119 86 -232 86 -116 0 -159 -15 -238 -83 -26 -23 -60 -45 -75 -49 -36 -9 -91 25 -115 70 -18 34 -18 38 -1 72 35 75 179 173 305 209 102 28 151 27 270 -10z m-1427 -114 c14 -5 39 -28 56 -51 30 -41 30 -44 30 -166 0 -137 -7 -162 -60 -207 -40 -33 -74 -33 -117 0 -55 42 -63 68 -63 206 0 138 11 171 72 208 37 23 47 24 82 10z m2646 -16 c52 -45 60 -70 60 -204 0 -134 -8 -159 -60 -204 -40 -33 -74 -33 -118 0 -51 39 -62 76 -62 206 0 129 13 168 69 205 44 30 72 29 111 -3z"></path></g></g><g id="l5JqU5E3Ta8DabgEPJSv3t1" fill="rgb(0,0,0)" style="transform: none;"><g style="transform: none;"><path id="pPN0ewA1c" d="M4800 10230 c-358 -28 -736 -116 -1135 -265 -89 -33 -350 -160 -480 -232 -628 -353 -1161 -879 -1511 -1494 -56 -99 -188 -363 -199 -399 -7 -23 -21 -56 -62 -150 -55 -126 -138 -415 -183 -643 -108 -543 -104 -1068 11 -1637 36 -177 97 -449 104 -460 3 -5 32 -112 86 -320 11 -41 24 -91 30 -110 6 -19 14 -51 19 -70 5 -19 14 -55 20 -80 6 -25 13 -53 15 -63 2 -9 11 -45 20 -80 36 -135 67 -346 72 -488 7 -171 -5 -271 -48 -399 -58 -179 -28 -309 91 -393 103 -71 200 -75 365 -13 142 54 344 156 456 232 198 133 396 320 536 506 36 49 72 88 79 88 8 0 16 -12 20 -27 3 -16 21 -71 39 -123 18 -52 36 -106 40 -120 3 -14 11 -40 16 -57 28 -100 57 -206 64 -235 2 -12 14 -63 25 -113 21 -91 36 -166 46 -220 3 -16 12 -66 20 -110 40 -220 75 -519 94 -802 10 -145 24 -190 66 -220 68 -47 138 -40 197 21 l40 41 -6 150 c-11 289 -57 672 -122 1005 -16 87 -41 195 -77 335 -22 88 -44 178 -49 200 -11 45 -56 184 -75 230 -7 17 -16 44 -20 60 -4 17 -25 77 -46 135 -107 288 -122 316 -180 346 -60 31 -162 2 -194 -56 -76 -138 -154 -264 -201 -328 -183 -249 -425 -452 -688 -577 -123 -59 -241 -102 -251 -92 -4 4 5 51 19 104 14 54 31 139 38 188 15 118 6 374 -20 530 -17 107 -88 411 -139 600 -25 93 -93 346 -97 365 -3 8 -12 42 -21 75 -9 33 -22 89 -30 125 -29 128 -46 205 -50 225 -24 101 -61 356 -84 577 -33 318 6 780 100 1163 71 292 147 493 294 780 178 348 370 616 641 893 416 427 913 740 1465 922 263 87 458 131 726 165 71 9 142 18 159 20 98 13 346 16 480 5 83 -7 168 -15 190 -16 22 -2 65 -8 95 -13 30 -4 59 -6 63 -4 5 3 20 0 35 -6 15 -6 47 -13 72 -16 25 -3 56 -7 70 -9 14 -1 35 -6 47 -10 12 -4 30 -9 40 -11 545 -122 1048 -363 1484 -711 163 -130 450 -416 579 -578 277 -348 467 -692 610 -1101 46 -133 46 -131 89 -301 130 -509 146 -1106 50 -1814 -70 -507 -231 -1127 -380 -1457 -10 -24 -19 -49 -19 -56 0 -7 -4 -17 -8 -22 -5 -6 -15 -26 -22 -45 -12 -34 -27 -68 -65 -155 -50 -112 -221 -446 -290 -565 -222 -383 -464 -717 -761 -1050 -211 -237 -294 -306 -294 -242 0 15 -52 280 -65 332 -2 8 -8 33 -13 55 -19 76 -84 300 -97 335 -7 19 -25 69 -40 110 -104 287 -128 327 -202 349 -83 24 -171 -39 -192 -137 -16 -73 -109 -354 -122 -366 -5 -6 -9 -16 -9 -23 0 -30 -151 -327 -255 -501 -36 -60 -183 -267 -239 -337 -267 -331 -592 -612 -967 -838 -197 -118 -557 -280 -804 -361 -60 -20 -130 -43 -154 -51 -24 -8 -48 -12 -53 -9 -6 4 -8 27 -4 58 30 237 52 501 61 731 8 199 2 227 -64 271 -67 44 -150 24 -203 -47 -16 -21 -21 -62 -33 -274 -15 -256 -38 -513 -55 -620 -6 -33 -10 -92 -10 -131 0 -60 5 -80 32 -135 41 -78 92 -119 189 -150 58 -18 77 -20 102 -12 18 6 48 14 67 17 19 3 96 26 170 50 461 150 906 377 1255 640 462 347 819 759 1083 1246 13 25 30 56 38 70 17 32 97 205 114 248 7 18 18 31 23 29 22 -7 113 -353 147 -557 33 -194 79 -266 203 -319 65 -28 159 -28 223 0 74 31 317 277 575 580 58 69 269 349 341 454 71 103 244 380 292 468 20 37 46 84 58 105 65 113 214 423 293 612 31 74 63 149 71 167 8 17 14 36 14 41 0 6 16 52 36 104 74 195 146 439 220 753 163 689 217 1537 135 2110 -13 88 -57 319 -70 365 -6 19 -13 51 -16 70 -3 19 -9 46 -14 60 -5 14 -14 45 -21 70 -24 87 -63 205 -82 250 -11 25 -24 54 -28 65 -4 11 -17 41 -29 67 -12 26 -21 52 -21 57 0 5 -7 22 -15 38 -8 15 -39 80 -69 144 -193 410 -531 862 -877 1175 -392 354 -779 598 -1242 781 -123 48 -408 142 -484 159 -38 8 -112 23 -143 28 -14 3 -47 10 -75 16 -60 14 -82 18 -160 26 -33 3 -67 10 -77 15 -44 24 -617 36 -848 19z"></path><path id="prcuTF7vQ" d="M4915 9723 c-227 -17 -524 -84 -755 -170 -234 -87 -551 -265 -725 -407 -307 -250 -519 -492 -698 -801 -43 -75 -157 -307 -157 -321 0 -3 -6 -20 -14 -37 -38 -86 -68 -177 -100 -300 -44 -166 -61 -265 -81 -452 -37 -357 -4 -590 145 -1010 91 -256 144 -433 165 -550 24 -134 22 -363 -4 -492 -26 -127 -26 -188 -1 -255 22 -60 92 -137 146 -163 88 -41 166 -42 374 -4 142 26 350 105 453 171 26 16 53 28 60 25 7 -3 21 -40 31 -83 44 -191 144 -463 238 -649 164 -324 379 -593 633 -790 179 -140 428 -280 597 -335 120 -40 255 -13 332 65 58 59 86 129 96 245 30 333 121 593 311 886 115 178 323 422 351 412 27 -11 134 -152 196 -259 114 -197 176 -244 327 -244 147 0 190 32 329 245 104 161 95 147 164 275 124 228 275 574 288 657 14 85 -53 168 -134 168 -54 0 -106 -24 -130 -59 -10 -14 -35 -71 -56 -126 -47 -125 -100 -240 -193 -424 -88 -170 -245 -425 -266 -429 -10 -2 -26 15 -43 45 -122 216 -243 360 -381 452 -126 85 -162 73 -343 -108 -75 -75 -163 -170 -196 -211 -303 -376 -481 -795 -520 -1223 -4 -43 -11 -80 -16 -83 -21 -13 -217 76 -351 160 -247 155 -472 384 -627 635 -187 305 -300 622 -374 1044 -22 129 -26 141 -57 173 -68 70 -159 67 -220 -7 -137 -164 -208 -219 -349 -273 -58 -21 -95 -31 -245 -66 -22 -5 -62 -11 -90 -12 -50 -3 -50 -3 -49 27 1 17 9 73 19 125 23 133 17 431 -14 579 -12 57 -23 106 -26 110 -2 4 -6 18 -8 32 -3 13 -26 89 -52 169 -26 80 -47 146 -46 148 1 1 -6 19 -15 40 -27 63 -105 304 -121 372 -46 208 -53 364 -28 594 27 247 101 531 184 708 17 36 31 69 31 73 0 30 204 356 302 485 59 77 310 327 395 393 227 178 501 328 748 409 91 30 326 88 356 88 14 0 29 3 32 7 4 3 33 8 64 10 32 2 74 8 93 13 55 15 411 11 530 -6 226 -32 313 -51 455 -99 324 -110 529 -221 775 -419 524 -423 851 -1017 925 -1681 34 -303 5 -769 -70 -1127 -28 -133 -19 -181 46 -228 80 -57 183 -29 220 60 30 71 83 424 104 690 30 381 11 680 -66 1007 -16 69 -113 357 -145 433 -223 516 -623 978 -1113 1280 -257 159 -652 312 -891 346 -19 2 -51 9 -70 14 -19 5 -57 11 -85 14 -27 3 -79 9 -115 14 -65 9 -379 13 -475 5z"></path><path id="pZIsirjtP" d="M5065 7604 c-155 -24 -344 -135 -389 -228 -48 -102 17 -206 131 -206 52 0 55 2 154 78 55 42 137 66 200 59 56 -7 134 -45 169 -82 14 -15 37 -33 52 -41 37 -19 114 -18 150 4 58 34 85 130 54 190 -20 37 -91 104 -151 141 -93 59 -272 99 -370 85z"></path><path id="p2v4txFA5" d="M3755 7457 c-22 -12 -50 -38 -62 -56 -21 -32 -23 -44 -23 -188 0 -171 6 -194 63 -237 49 -37 133 -37 177 0 55 46 60 68 60 237 l0 154 -30 41 c-30 41 -83 72 -124 72 -11 0 -39 -10 -61 -23z"></path><path id="psHTdeB1H" d="M6376 7458 c-74 -44 -81 -61 -84 -226 -4 -173 4 -209 56 -251 31 -27 45 -31 94 -31 46 0 62 5 88 26 55 46 60 68 60 237 0 143 -2 156 -22 187 -52 75 -125 97 -192 58z"></path></g></g></svg>
