<svg xmlns="http://www.w3.org/2000/svg" width="91" height="75" fill="none" viewBox="0 0 91 75">
  <g id="hp">
    <g id="hp-level">
      <mask id="mask0_416_3116" width="53" height="48" x="19" y="23" maskUnits="userSpaceOnUse" style="mask-type:alpha">
        <path id="mask" fill="#FC3A83" fill-rule="evenodd" d="M65.884 27.76c5.903 5.426 8.004 15.172 2.191 20.682L45.531 70.083 23.027 47.548c-5.649-5.656-3.655-14.515 2.405-19.787 6.06-5.272 13.892-4.961 19.54.695l1.154 1.156 1.514-1.434c5.812-5.51 12.341-5.842 18.244-.417Z"/>
      </mask>
      <g mask="url(#mask0_416_3116)">
        <path id="bg" fill="#fff" d="M18.412 23.222h53.726v48.496H18.412z"/>
        <path id="level" fill="#FC3A83" d="M19 28.002h53.138v42H19z"/>
        <path id="dark-wave" fill="#EE1E67" d="M71.625 26.355c-9.297 0-20.997-6.194-34.973-5.257-7.896.529-11.492 3.372-19.42 3.727-8.428.378-12.87-2.275-21.319-2.275-10.366 0-15.826.939-25.913 2.272-1.52.2-3.29.69-3.29.69s-4.98.843-7.085.843c-9.297 0-20.997-6.194-34.973-5.257-7.896.529-11.492 3.372-19.42 3.727-8.428.378-12.869-2.275-21.319-2.275-10.366 0-15.825.939-25.913 2.272v4.18l111.988-.004.012.003 112-.003v-4.173s-6.434 1.53-10.375 1.53Z"/>
        <path id="wave" fill="#FC3A83" d="M31.375 27.017c9.297 0 20.997-4.645 34.973-3.943 7.896.397 11.492 2.529 19.42 2.795 8.428.284 12.87-1.706 21.319-1.706 10.366 0 15.825.704 25.913 1.704 1.52.15 3.289.518 3.289.518s4.982.631 7.086.631c9.297 0 20.997-4.644 34.973-3.942 7.896.397 11.492 2.529 19.419 2.795 8.429.284 12.87-1.706 21.32-1.706 10.366 0 15.825.704 25.913 1.704V29H133.012l-.012.003L21 29v-3.13s6.434 1.148 10.375 1.148Z"/>
      </g>
    </g>
    <g id="l-arm">
      <path id="fill" fill="#FFCEBF" d="M13.463 48.287c0-.07-.052-.132-.123-.132-.07 0-.739-.194-1.478-.44-1.24-.396-1.354-.422-1.495-.29-.15.132-.158.114-.158-.37 0-.756-.203-.976-1.381-1.495-1.935-.836-4.478-2.252-5.639-3.123-.703-.527-.703-.501 1.012-5.937.413-1.302.844-2.63.95-2.947.114-.316.466-1.302.774-2.199 3.272-9.298 6.685-16.07 9.262-18.375.282-.238.625-.502.774-.572.396-.185 6.123-.871 6.809-.818.923.07 1.706.563 2.11 1.346.054.096.318 1.046.59 2.11.449 1.734.493 1.998.466 2.64-.035.589-.079.791-.307 1.187-.423.757-.766.959-2.754 1.619-1.697.563-1.803.589-2.471.554-.686-.027-.722-.035-.986-.343a4.565 4.565 0 0 1-.518-.757c-.29-.545-.74-.8-1.127-.642-.404.167-.686.537-.826 1.1-.08.29-.827 3.36-1.672 6.826-.844 3.465-1.574 6.447-1.636 6.64-.07.247-.21.432-.527.678-.59.44-1.162 1.179-1.601 2.059-.335.668-.352.738-.247.993.141.344.651.792.915.792.37 0 .765-.37 1.1-1.011.448-.871.686-1.153 1.275-1.549.81-.545 1.557-.73 2.868-.739.607 0 1.249.036 1.433.07.396.089.405.16.132 1.47-.158.765-.193 1.214-.193 2.639 0 1.521.026 1.838.237 2.823.387 1.848 1.056 3.642 1.848 4.961.299.502.413.775.413 1.02 0 .247-.035.344-.132.344-.783 0-3.5-.378-5.867-.81-.519-.087-.633-.087-.906.045-.176.079-.396.29-.493.457-.184.317-.43.413-.43.176Z"/>
      <path id="shape" fill="#000" d="M21.81 50.785h3.755l-2.368-2.687c-.062.132-5.133-.268-7.359-.708l-1.188-.229-.413.185c-.519.229-.774.616-.774 1.16 0 .44.22.88.545 1.092.643.422 4.794 1.055 7.803 1.187Zm-3.518-15.393c.308.052 2.294.308 2.444.343l.918-2.526-2.21-.307c-.905-.158-1.873-.237-2.436-.184-.352.035-.642.026-.642-.018-.009-.035.519-2.234 1.16-4.89.977-4.03 1.188-4.803 1.303-4.76.633.282 1.082.379 1.75.387.695 0 .88-.044 2.745-.668 1.196-.396 2.216-.792 2.542-.985 1.566-.924 2.586-2.894 2.436-4.689-.07-.88-1.073-4.582-1.407-5.225-.36-.686-1.355-1.68-2.058-2.05-.634-.333-1.733-.633-2.305-.633-.704 0-6.632.775-7.037.915-1.038.379-2.665 1.874-3.888 3.58C8.344 18.248 4.693 26.965.999 38.98c-.502 1.654-.59 2.015-.59 2.622-.008 1.135.414 1.926 1.417 2.656 2.225 1.61 6.5 3.81 7.415 3.81.756 0 1.267-.52 1.267-1.285 0-.695-.264-.977-1.329-1.443-2.436-1.064-5.805-3-6.122-3.527-.07-.114-.009-.449.238-1.276.43-1.46 1.943-6.245 2.163-6.843.088-.246.423-1.179.74-2.076 3.245-9.271 6.676-16.07 9.253-18.375.281-.238.625-.502.774-.572.15-.07 1.619-.29 3.263-.493 3.326-.404 3.519-.404 4.284.08.66.413.862.844 1.39 2.832.59 2.234.625 2.78.211 3.51-.43.765-.765.958-2.762 1.627-1.513.501-1.847.59-2.216.554-.52-.053-.748-.246-1.162-.994-.316-.58-.695-.836-1.222-.836-.678 0-1.135.414-1.329 1.188-.076.28-.775 3.15-1.583 6.466l-.088.36c-.844 3.465-1.574 6.448-1.636 6.641-.07.246-.211.431-.528.677-.58.431-1.152 1.179-1.583 2.032-.51 1.003-.457 1.566.176 2.111.22.185.37.23.739.23.642 0 .967-.238 1.363-1.012.449-.871.686-1.153 1.276-1.549.914-.607 2.322-.897 3.474-.703Z"/>
    </g>
    <g id="r-arm">
      <path id="fill_2" fill="#FFCEBF" d="M70.55 46.194c0-.159.142-.634.309-1.056.387-.968.783-2.34.967-3.36.3-1.689.264-3.94-.096-5.454-.185-.791-.168-1.064.079-1.134.43-.124 1.89-.159 2.516-.062 1.53.237 2.506.923 3.157 2.19.546 1.073 1.109 1.32 1.698.757.457-.44.484-.66.176-1.32-.466-.994-1.196-1.909-1.926-2.428-.238-.158-.29-.351-2.437-9.21-.66-2.726-1.231-5.04-1.275-5.154-.088-.22-.537-.624-.792-.704-.334-.105-.81.23-1.109.783-.457.853-.624.968-1.442 1.003-.66.035-.774.009-2.463-.554-1.988-.66-2.331-.862-2.753-1.619-.229-.395-.273-.598-.308-1.187-.026-.633.017-.906.422-2.472.246-.967.51-1.917.58-2.102.344-.897 1.162-1.452 2.217-1.522.352-.026 1.329.053 2.384.185.985.123 1.83.229 1.874.229.035 0 .07.043.07.096 0 .053.158.317.343.59 2.657 3.844 6.096 11.945 9.113 21.48 1.399 4.425 1.47 4.706 1.434 5.507-.035 1.02-.22 1.257-1.636 2.181-3.008 1.962-5.929 3.281-9.562 4.328-.572.167-1.16.299-1.293.299-.22 0-.246-.035-.246-.29Z"/>
      <path id="shadow" fill="#FDB0A0" d="M69.495 48.032c0-.202.158-.563.484-1.117.264-.458.519-.871.572-.933a.566.566 0 0 0 .088-.29c0-.132.052-.176.22-.176.22 0 .22 0 .088.317a7.27 7.27 0 0 0-.132.343c0 .044 1.17-.29 2.348-.669a33.424 33.424 0 0 0 8.225-3.914c1.794-1.17 1.917-1.522 1.301-3.598-3.298-11.1-7.23-20.732-10.212-25.043-.185-.272-.343-.536-.343-.589 0-.053-.062-.097-.132-.097s-.132-.061-.132-.14c0-.133.08-.141.642-.088.36.035 1.012.114 1.46.175.748.115.854.159 1.311.52 1.012.791 2.454 2.7 3.695 4.899.66 1.17.888 1.346 1.627 1.267.492-.053.51-.053.413.105-.088.14 0 .37.52 1.46.342.722.624 1.337.624 1.39 0 .044.061.088.132.088.22 0 .15.308-.123.51-.141.106-.3.317-.352.484-.088.264-.053.396.395 1.47 1.769 4.257 3.59 9.42 5.322 15.155.66 2.19.669 2.42.062 2.877-1.821 1.363-5.146 3.043-7.987 4.028-2.956 1.012-7.266 1.865-9.474 1.865h-.642v-.3Z"/>
      <g id="shape_2">
        <path fill="#000" d="M73.788 32.718c-.572-.053-1.992.132-2.907.29l-2.327.374.846 2.37 2.279-.273c.87-.123 2.786-.087 3.657.273.836.352 1.416.915 1.883 1.83.448.888.747 1.1 1.442 1.056.387-.027.563-.088.74-.256.553-.51.606-1.064.21-1.917-.466-.977-1.196-1.891-1.917-2.402-.238-.158-.29-.352-2.437-9.21-.66-2.726-1.231-5.04-1.275-5.154-.097-.246-.563-.642-.845-.712-.317-.08-.853.008-1.126.184-.132.088-.352.378-.492.651-.59 1.179-.906 1.214-3.343.405-1.98-.66-2.331-.862-2.744-1.601-.431-.765-.414-1.126.105-3.15.52-2.04.625-2.339.977-2.779.281-.352.967-.739 1.495-.827.317-.061 6.096.607 6.448.748.334.123 1.178.87 1.733 1.522.65.774 1.811 2.507 2.524 3.756.616 1.1.88 1.32 1.566 1.32.37 0 .519-.045.739-.23.58-.492.677-1.117.299-1.838-.537-1.003-1.707-2.876-2.305-3.677-1.24-1.671-2.639-2.947-3.633-3.325-.448-.176-6.324-.959-7.142-.959-.563 0-1.663.308-2.287.634-.792.413-1.724 1.38-2.111 2.19-.361.765-1.285 4.231-1.355 5.102-.07.81.105 1.671.51 2.533.273.58.475.871.985 1.364.343.343.871.747 1.161.897.29.158 1.381.563 2.428.906 1.715.563 1.97.625 2.604.625.668 0 1.53-.185 1.768-.37.061-.053.123-.08.14-.062.045.053 2.34 9.536 2.34 9.659 0 .088-.158.096-.633.053Z"/>
        <path fill="#000" d="M73.568 47.663c-1.425.237-4.41.326-4.49.238l-1.945.66-1.928 2.041h1.225c7.24-.308 16.471-2.253 21.995-5.983 1.443-.976 1.883-1.592 1.97-2.78.053-.633 0-.862-.985-4.064-1.856-6.034-5.11-14.865-5.717-15.49-.818-.862-2.235-.281-2.235.915 0 .158.22.827.493 1.478 1.583 3.809 3.316 8.655 4.83 13.537 1.002 3.255 1.055 3.44.958 3.59-.22.351-2.498 1.776-4.24 2.647-3.034 1.522-6.439 2.621-9.93 3.21Z"/>
      </g>
    </g>
    <g id="glance">
      <path id="soft-light" fill="#3A3A3A" d="M42.992 67.26c-1.619-1.618-1.909-1.952-1.909-2.172 0-.202.026-.229.106-.15.087.088 2.128-1.9 9.605-9.367 5.225-5.217 9.5-9.5 9.5-9.527a6.56 6.56 0 0 1 .396-.528c.211-.264.484-.633.607-.809.114-.185.255-.334.29-.334.044 0 .07-.035.053-.07-.018-.088.739-1.46.836-1.496.044-.018.052-.07.017-.114-.026-.044-.009-.08.027-.08.043 0 .087-.087.087-.193.01-.114.062-.211.115-.229.044-.017.07-.07.035-.114-.026-.044-.009-.08.026-.08.044 0 .088-.087.088-.193.01-.114.062-.21.106-.228.044-.018.062-.088.035-.159-.026-.07 0-.123.053-.123s.07-.061.044-.132c-.035-.07-.009-.132.044-.132s.07-.061.044-.132c-.035-.07-.018-.132.017-.132.044 0 .088-.123.097-.281.009-.15.053-.3.097-.326.035-.026.07-.131.08-.228 0-.097.07-.528.157-.968.361-1.82.256-4.39-.272-6.377-.563-2.146-1.909-4.636-3.237-6-.176-.175-.317-.342-.317-.377 0-.027.132-.044.3-.044.421 0 1.415.369 2.532.94 3.59 1.822 6.167 5.19 7.038 9.202.176.782.193 1.16.202 2.964 0 1.689-.035 2.208-.167 2.815-.405 1.873-1.056 3.43-2.094 4.987-.545.827-1.073 1.39-3.993 4.337-2.155 2.173-3.387 3.474-3.422 3.624a.799.799 0 0 0 .08.519c.149.299.193.739.06.66-.105-.07-2.26 2.137-2.225 2.287.035.176-.21.15-.66-.062-.237-.114-.448-.158-.571-.123-.115.035-2.64 2.49-5.612 5.463l-5.41 5.4h-.968l-1.917-1.917Z" style="mix-blend-mode:soft-light"/>
      <path id="color" fill="#8B0B38" fill-opacity=".2" d="M42.992 67.26c-1.619-1.618-1.909-1.952-1.909-2.172 0-.202.026-.229.106-.15.087.088 2.128-1.9 9.605-9.367 5.225-5.217 9.5-9.5 9.5-9.527a6.56 6.56 0 0 1 .396-.528c.211-.264.484-.633.607-.809.114-.185.255-.334.29-.334.044 0 .07-.035.053-.07-.018-.088.739-1.46.836-1.496.044-.018.052-.07.017-.114-.026-.044-.009-.08.027-.08.043 0 .087-.087.087-.193.01-.114.062-.211.115-.229.044-.017.07-.07.035-.114-.026-.044-.009-.08.026-.08.044 0 .088-.087.088-.193.01-.114.062-.21.106-.228.044-.018.062-.088.035-.159-.026-.07 0-.123.053-.123s.07-.061.044-.132c-.035-.07-.009-.132.044-.132s.07-.061.044-.132c-.035-.07-.018-.132.017-.132.044 0 .088-.123.097-.281.009-.15.053-.3.097-.326.035-.026.07-.131.08-.228 0-.097.07-.528.157-.968.361-1.82.256-4.39-.272-6.377-.563-2.146-1.909-4.636-3.237-6-.176-.175-.317-.342-.317-.377 0-.027.132-.044.3-.044.421 0 1.415.369 2.532.94 3.59 1.822 6.167 5.19 7.038 9.202.176.782.193 1.16.202 2.964 0 1.689-.035 2.208-.167 2.815-.405 1.873-1.056 3.43-2.094 4.987-.545.827-1.073 1.39-3.993 4.337-2.155 2.173-3.387 3.474-3.422 3.624a.799.799 0 0 0 .08.519c.149.299.193.739.06.66-.105-.07-2.26 2.137-2.225 2.287.035.176-.21.15-.66-.062-.237-.114-.448-.158-.571-.123-.115.035-2.64 2.49-5.612 5.463l-5.41 5.4h-.968l-1.917-1.917Z" style="mix-blend-mode:color"/>
    </g>
    <g id="b-l-green-cross">
      <path id="shadow_2" fill="#20B59F" d="M20.236 67.366c0-.061.097-.132.22-.158l.22-.053v-4.996l-.264-.062c-.14-.035-.264-.105-.264-.167 0-.08.484-.097 2.006-.07 1.882.026 2.006.044 2.155.21.132.159.15.423.15 2.578s-.018 2.419-.15 2.577c-.15.167-.281.185-2.111.211-1.469.027-1.962.01-1.962-.07Z"/>
      <path id="fill_3" fill="#27D1B4" d="M14.229 72.01c-.132-.14-.15-.404-.15-1.856 0-1.926-.053-2.155-.607-2.49-.3-.193-.422-.201-2.093-.228-1.707-.026-1.795-.035-1.918-.22-.202-.281-.194-4.855.009-5.145.132-.185.176-.194 1.82-.194 1.584 0 1.725-.009 2.085-.194.651-.334.704-.536.704-2.489 0-1.372.026-1.715.14-1.873.133-.194.15-.194 2.675-.194 2.524 0 2.542 0 2.674.194.114.158.14.5.14 1.855s.027 1.716.141 1.962c.159.334.493.607.854.695l.237.062v5.48l-.457.22c-.722.351-.774.51-.774 2.507 0 1.372-.027 1.715-.141 1.873-.132.194-.15.194-2.666.194-2.34 0-2.542-.01-2.674-.159Z"/>
      <path id="stroke" fill="#000" d="M13.718 74.342c-.633-.264-.967-.502-1.31-.941-.493-.625-.643-1.144-.687-2.437l-.035-1.152-1.249-.035c-1.1-.027-1.293-.062-1.68-.247-.88-.422-1.53-1.293-1.715-2.278-.115-.616-.115-4.592 0-5.207.193-1.012.827-1.839 1.741-2.261.45-.211.625-.238 1.716-.264l1.205-.035v-.941c0-.554.053-1.153.132-1.46.264-1.03 1.1-1.9 2.093-2.2.651-.193 5.278-.193 5.929 0 .994.3 1.83 1.17 2.093 2.2.08.307.133.905.133 1.46v.94l1.213.036c1.082.026 1.258.053 1.707.264a3.143 3.143 0 0 1 1.741 2.26c.115.616.115 4.592 0 5.208-.184.985-.835 1.856-1.715 2.278-.387.185-.58.22-1.68.246l-1.249.036-.035 1.152c-.035.924-.08 1.267-.238 1.662-.255.66-.87 1.311-1.548 1.628l-.527.246-2.771.018c-2.727.026-2.78.026-3.264-.176Zm5.586-2.63c.114-.159.14-.502.14-1.856 0-1.883.062-2.12.608-2.454.299-.194.422-.203 2.093-.23 1.707-.026 1.794-.034 1.918-.22.193-.28.193-4.327 0-4.608-.132-.185-.203-.194-1.962-.22-1.715-.027-1.838-.035-2.093-.22-.502-.36-.563-.616-.563-2.463 0-1.355-.027-1.698-.141-1.856-.132-.194-.159-.194-2.41-.194-2.252 0-2.279 0-2.41.194-.115.158-.141.501-.141 1.873 0 1.953-.053 2.156-.704 2.49-.36.184-.501.193-2.085.193-1.645 0-1.689.01-1.82.194-.203.29-.212 4.336-.01 4.618.124.185.212.193 1.918.22 1.672.026 1.795.035 2.094.228.554.335.607.564.607 2.49 0 1.451.017 1.715.15 1.856.131.15.325.158 2.41.158 2.242 0 2.269 0 2.4-.193Z"/>
    </g>
    <g id="b-r-green-cross">
      <path id="shadow_3" fill="#20B59F" d="M77.236 67.366c0-.061.097-.132.22-.158l.22-.053v-4.979l-.264-.096c-.14-.053-.264-.132-.264-.176 0-.044.898-.062 2.006-.044 1.882.026 2.005.044 2.155.21.132.16.15.423.15 2.578s-.018 2.42-.15 2.578c-.15.167-.281.184-2.111.21-1.469.027-1.962.01-1.962-.07Z"/>
      <path id="fill_4" fill="#27D1B4" d="M71.228 72.01c-.131-.14-.15-.404-.15-1.856 0-1.926-.052-2.155-.606-2.49-.3-.193-.422-.201-2.093-.228-1.707-.026-1.795-.035-1.918-.22-.202-.281-.194-4.855.009-5.145.132-.185.176-.194 1.82-.194 1.584 0 1.725-.009 2.085-.194.651-.334.704-.536.704-2.489 0-1.372.026-1.715.14-1.873.133-.194.15-.194 2.675-.194 2.524 0 2.542 0 2.674.194.114.158.14.5.14 1.873 0 1.997.053 2.155.775 2.507l.448.22v2.727l.009 2.727-.457.22c-.73.351-.774.51-.774 2.56 0 1.556-.018 1.732-.159 1.864-.14.132-.457.15-2.674.15-2.313 0-2.516-.01-2.648-.159Z"/>
      <path id="stroke_2" fill="#000" d="M70.718 74.342c-.633-.264-.967-.502-1.31-.941-.493-.625-.643-1.144-.687-2.437l-.035-1.152-1.249-.035c-1.222-.027-1.249-.036-1.794-.326-.871-.475-1.416-1.214-1.601-2.199-.114-.616-.114-4.592 0-5.207.193-1.012.827-1.839 1.742-2.261.448-.211.624-.238 1.715-.264l1.205-.035v-.941c0-.554.053-1.153.132-1.46.264-1.03 1.1-1.9 2.093-2.2.651-.193 5.278-.193 5.929 0 .994.3 1.83 1.17 2.093 2.2.08.307.133.905.133 1.46v.94l1.213.036c1.082.026 1.258.053 1.707.264.915.422 1.548 1.249 1.742 2.26.114.616.114 4.592 0 5.208-.185.985-.836 1.856-1.716 2.278-.387.185-.58.22-1.68.246l-1.249.036-.035 1.152c-.035.924-.08 1.267-.238 1.662-.255.66-.87 1.311-1.548 1.628l-.528.246-2.77.018c-2.727.026-2.78.026-3.264-.176Zm5.568-2.586c.141-.132.159-.308.159-1.856 0-1.936.052-2.164.607-2.499.299-.193.422-.202 2.093-.228 1.707-.027 1.794-.035 1.918-.22.202-.282.193-4.328-.01-4.618-.131-.185-.175-.194-1.82-.194-1.583 0-1.724-.008-2.085-.193-.65-.334-.703-.537-.703-2.49 0-1.372-.027-1.715-.141-1.873-.132-.194-.159-.194-2.41-.194-2.252 0-2.279 0-2.41.194-.115.158-.141.501-.141 1.873 0 1.953-.053 2.156-.704 2.49-.36.184-.501.193-2.085.193-1.645 0-1.689.01-1.82.194-.203.29-.212 4.336-.01 4.618.124.185.212.193 1.918.22 1.672.026 1.795.035 2.094.228.554.335.607.564.607 2.49 0 1.451.017 1.715.15 1.856.131.15.325.158 2.383.158 1.97 0 2.27-.017 2.41-.15Z"/>
    </g>
    <path id="Vector (Stroke) (Stroke)" fill="#000" fill-rule="evenodd" d="M67.421 27.655c-6.194-5.995-16.042-5.89-22.106.196-6.065-6.085-15.913-6.19-22.107-.196-6.25 6.05-6.413 16.02-.363 22.271l20.134 20.803a3.25 3.25 0 0 0 4.671 0l10.195-10.504a1.25 1.25 0 0 0-1.794-1.741L45.855 68.99a.75.75 0 0 1-1.078 0L24.64 48.187c-5.089-5.258-4.952-13.646.306-18.735 5.258-5.09 13.647-4.953 18.736.305a2.271 2.271 0 0 0 3.264 0c5.089-5.258 13.477-5.395 18.735-.306 5.259 5.09 5.395 13.478.306 18.736l-5.798 5.991a1.25 1.25 0 0 0 1.796 1.739l5.799-5.991c6.05-6.25 5.886-16.221-.364-22.271Z"/>
    <g id="t-green-cross">
      <path id="shadow_4" fill="#20B59F" d="M48.648 12.944c0-.045.124-.124.264-.176l.264-.097v-2.498c0-2.129-.017-2.49-.132-2.534-.404-.158.053-.21 1.75-.21 1.857 0 1.892 0 2.024.193.123.167.14.563.14 2.586 0 2.146-.017 2.41-.149 2.568-.15.168-.273.185-2.155.212-1.108.017-2.006 0-2.006-.044Z"/>
      <path id="fill_5" fill="#27D1B4" d="M42.72 17.526c-.115-.158-.141-.501-.141-1.873 0-1.953-.053-2.155-.704-2.48-.36-.194-.501-.203-2.084-.203-1.645 0-1.69-.009-1.821-.194-.203-.29-.211-4.864-.01-5.145.124-.185.212-.194 1.919-.22 1.935-.027 2.093-.07 2.48-.58.158-.212.176-.414.22-2.05.035-1.355.07-1.848.167-1.962.106-.123.405-.14 2.648-.14 2.33 0 2.533.008 2.665.158.132.14.15.404.15 1.873 0 1.478.017 1.75.158 2.006.15.272.528.545.924.66.14.043.149.255.149 2.797l-.009 2.753-.448.22c-.722.352-.774.51-.774 2.507 0 1.372-.027 1.715-.141 1.873-.132.194-.15.194-2.674.194-2.525 0-2.542 0-2.674-.194Z"/>
      <path id="stroke_3" fill="#000" d="M42.394 19.963c-.968-.308-1.803-1.197-2.058-2.2-.08-.307-.132-.905-.132-1.46v-.94l-1.205-.036c-1.091-.026-1.267-.053-1.716-.264-.932-.43-1.557-1.266-1.75-2.34-.053-.29-.08-1.46-.062-2.867.035-2.226.044-2.42.229-2.885.255-.625.87-1.293 1.513-1.619.448-.237.563-.255 1.724-.281l1.25-.035.034-1.153c.035-.923.08-1.266.238-1.662.255-.66.87-1.31 1.548-1.628l.528-.246L45.27.321c2.586-.027 2.762-.018 3.228.158.67.255 1.153.625 1.505 1.161.422.633.58 1.32.58 2.454v.942l1.258.035c1.232.026 1.258.035 1.803.325.871.475 1.417 1.214 1.601 2.2.115.597.115 4.59 0 5.18a3.154 3.154 0 0 1-1.741 2.287c-.449.211-.625.238-1.707.264l-1.214.035v.942c0 1.89-.554 2.929-1.908 3.553-.405.185-.537.194-3.15.211-2.19.018-2.806-.008-3.131-.105Zm5.41-2.7c.114-.159.14-.502.14-1.874 0-1.953.053-2.155.704-2.48.36-.194.502-.203 2.085-.203 1.645 0 1.689-.009 1.82-.194.203-.29.212-4.336.01-4.618-.124-.184-.212-.193-1.918-.22-1.672-.026-1.795-.035-2.094-.228-.554-.335-.607-.563-.607-2.49 0-1.451-.017-1.715-.15-1.856-.131-.15-.325-.158-2.4-.158-1.997 0-2.279.018-2.384.14-.097.115-.132.608-.167 1.962-.044 1.636-.062 1.839-.22 2.05-.387.51-.546.554-2.48.58-1.707.027-1.795.036-1.919.22-.202.282-.193 4.328.01 4.618.131.185.175.194 1.82.194 1.583 0 1.724.009 2.085.202.65.326.703.528.703 2.48 0 1.373.027 1.716.141 1.874.132.194.159.194 2.41.194 2.252 0 2.279 0 2.41-.194Z"/>
    </g>
    <g id="face">
      <circle id="l-eye" cx="34.909" cy="34.002" r="2" fill="#000"/>
      <circle id="r-eye" cx="55.909" cy="34.002" r="2" fill="#000"/>
      <g id="mouths">
        <path id="smile" fill="#000" d="M45.374 35.708c-2.377 0-3.752-1.874-4.916-.16-1.165 1.716 2.644 3.128 4.916 3.113 2.257-.016 5.803-1.356 4.854-3.137-.948-1.78-2.476.184-4.854.184Z"/>
        <path id="sad" fill="#000" d="M45.374 37.73c-2.377 0-3.752 1.875-4.916.16-1.165-1.715 2.644-3.127 4.916-3.112 2.257.016 5.803 1.356 4.854 3.137-.948 1.78-2.476-.184-4.854-.184Z"/>
        <path id="neutral" fill="#000" fill-rule="evenodd" d="M41.009 36.844a1.5 1.5 0 0 1 1.5-1.5h5.074a1.5 1.5 0 1 1 0 3h-5.074a1.5 1.5 0 0 1-1.5-1.5Z"/>
        <circle id="surprise" cx="45.105" cy="37.306" r="2.597" fill="#000"/>
      </g>
    </g>
  </g>
</svg>
