<svg width="44" height="44" viewBox="0 0 44 44" fill="none" xmlns="http://www.w3.org/2000/svg">
<path d="M8.75628 12.0646C9.0462 12.3736 9.39276 12.5899 9.79598 12.7132L15.2453 14.4838L16.6308 8.92404C16.7398 8.5167 16.74 8.10822 16.6315 7.69861C16.523 7.28899 16.3253 6.93242 16.0385 6.6289C15.7516 6.32538 15.4066 6.11194 15.0034 5.98857C14.6001 5.8652 14.2017 5.85118 13.8082 5.94651C13.4146 6.04184 13.0678 6.23411 12.7677 6.52332C12.4677 6.81252 12.2685 7.15784 12.1702 7.55926L11.9905 8.61288L11.0017 8.20706C10.5985 8.08369 10.2001 8.06967 9.80654 8.165C9.41296 8.26033 9.06882 8.45112 8.77412 8.73737C8.47941 9.02362 8.27756 9.37041 8.16857 9.77775C8.05957 10.1851 8.0578 10.5908 8.16324 10.9949C8.26869 11.399 8.46637 11.7555 8.75628 12.0646Z" fill="#FF6C6C"/>
<path d="M34.6316 16.448C34.1169 16.9967 33.5016 17.3805 32.7858 17.5995L23.1113 20.7429L20.6517 10.8725C20.4582 10.1493 20.4578 9.42411 20.6504 8.69689C20.8431 7.96968 21.194 7.33665 21.7033 6.79781C22.2125 6.25896 22.8251 5.88002 23.5409 5.661C24.2568 5.44198 24.9641 5.41709 25.6628 5.58633C26.3615 5.75558 26.9772 6.09692 27.5099 6.61036C28.0426 7.1238 28.3962 7.73685 28.5708 8.44951L28.8898 10.32L30.6452 9.59957C31.361 9.38055 32.0683 9.35566 32.7671 9.52491C33.4658 9.69415 34.0767 10.0329 34.6 10.5411C35.1232 11.0492 35.4815 11.6649 35.675 12.3881C35.8685 13.1112 35.8717 13.8315 35.6845 14.5489C35.4973 15.2663 35.1463 15.8993 34.6316 16.448Z" fill="#FFD2D2"/>
</svg>
