<svg width="44" height="44" viewBox="0 0 44 44" fill="none" xmlns="http://www.w3.org/2000/svg">
<path fill-rule="evenodd" clip-rule="evenodd" d="M26.6229 4.17855C27.0827 4.64081 26.4098 5.60413 24.8185 6.76175C22.2227 8.65002 22.0414 8.81367 21.0459 10.1685C20.4952 10.9182 19.2763 12.2906 18.3372 13.2185C14.6792 16.8334 13.7793 17.997 10.7809 22.9895C9.05013 25.8715 8.48006 26.7152 8.26375 26.7152C8.00996 26.7152 7.98605 26.6284 8.00507 25.7765C8.02129 25.0479 8.13273 24.5914 8.50299 23.7379C9.03894 22.502 12.4924 16.2762 13.4802 14.765C13.8901 14.1381 15.3441 12.5487 17.4858 10.3866L20.8481 6.99218L22.2356 6.32691C22.9988 5.96095 24.0883 5.28991 24.6568 4.83567C25.7023 4.00042 26.2602 3.81386 26.6229 4.17855ZM24.728 5.73798C24.4011 6.0245 23.5202 6.55171 22.7704 6.90952C21.4319 7.5485 21.3526 7.61472 18.3543 10.6002C16.6751 12.2722 14.9992 14.0199 14.63 14.4838C13.9646 15.3201 12.305 18.1442 10.2511 21.9351C8.68155 24.8323 8.79676 24.8068 10.5695 21.8648C11.4314 20.4343 12.4273 18.8537 12.7825 18.3522C13.7649 16.9654 15.6656 14.8114 17.5602 12.9373C18.4985 12.0094 19.7268 10.6435 20.29 9.9017C21.4541 8.36898 22.1082 7.75179 23.8299 6.56198C24.497 6.10098 25.2316 5.51303 25.4624 5.25561C25.9143 4.75131 25.6734 4.90948 24.728 5.73798ZM30.8257 5.4014C31.0866 5.56617 30.9283 6.21514 30.4402 6.9822C30.2257 7.3192 29.306 8.41735 28.3966 9.42257C27.3317 10.5996 26.2868 11.9509 25.4614 13.2185C24.7257 14.3483 23.6333 15.7834 22.8971 16.5872C21.5349 18.0742 21.3069 18.3832 20.3632 20.0206C19.6709 21.2216 17.7254 23.6926 15.4486 26.2623C12.7558 29.3018 12.392 29.765 11.6442 31.1085C10.6627 32.8718 10.2901 32.8579 10.0944 31.0506C9.98431 30.0355 10.2414 29.1252 11.1526 27.303C12.4676 24.6734 13.8007 22.8048 17.8069 17.9758C19.336 16.1325 21.3695 13.6466 22.3256 12.4513C23.6557 10.7888 24.2972 10.1117 25.0562 9.5692C25.6018 9.17935 26.7076 8.25918 27.5135 7.5246C29.57 5.65025 30.3886 5.12542 30.8257 5.4014ZM27.9093 8.16035C27.1018 8.90787 26.021 9.81397 25.5075 10.174C24.7607 10.6974 24.0866 11.435 22.1388 13.859C20.7997 15.5259 18.7328 18.0565 17.5458 19.4827C15.3149 22.1632 13.6525 24.3898 12.7565 25.8974C11.7991 27.5083 10.9465 29.481 10.8856 30.2257L10.8277 30.9329L11.4028 29.9895C11.7193 29.4706 12.5895 28.3712 13.3369 27.5464C16.8857 23.6296 19.1047 20.7802 20.4067 18.4676C20.6097 18.107 21.3793 17.158 22.1167 16.3587C22.9175 15.491 24.0419 14.0277 24.9075 12.7264C25.7317 11.4877 26.9372 9.91028 27.7011 9.07109C30.3704 6.13838 30.4448 5.81319 27.9093 8.16035ZM33.8286 10.0084C34.0608 10.2418 33.7954 10.6848 31.8731 13.2725C30.7462 14.7893 29.7331 16.2517 29.6213 16.5224C29.0675 17.865 28.6602 18.5352 27.6129 19.8263C25.5119 22.4164 24.1021 24.289 19.622 30.4408C14.5962 37.3419 13.9302 38.1733 13.4291 38.1733C13.1844 38.1733 13.0877 38.096 13.0877 37.9004C13.0877 37.7503 13.1444 37.5924 13.2136 37.5494C13.3287 37.4778 13.4889 36.8866 13.7238 35.6669C13.7733 35.4096 14.0834 34.8032 14.4129 34.3194C14.7423 33.8355 15.0571 33.2869 15.1124 33.1001C15.4153 32.078 17.6732 28.3206 19.3897 25.9824C21.8216 22.6697 22.8978 21.4269 23.8861 20.79C24.6804 20.278 24.9679 19.9784 25.5883 19.016C26.6042 17.44 29.5264 13.5989 30.7095 12.2844C31.6754 11.2113 33.2365 9.91463 33.5628 9.91463C33.6577 9.91463 33.7774 9.95681 33.8286 10.0084ZM29.023 15.5383C28.1593 16.6595 27.0278 18.2124 26.5085 18.9892C25.5647 20.401 24.8935 21.1184 24.1599 21.5C23.6411 21.7696 22.9428 22.5499 21.2546 24.7469C18.7711 27.9784 17.062 30.6479 15.9443 33.0418C15.6192 33.7377 15.1912 34.5229 14.993 34.7866C14.6521 35.2403 14.2613 36.1679 14.3672 36.2718C14.3941 36.2982 15.706 34.5421 17.2825 32.3696C21.4165 26.6727 24.835 22.0943 26.7005 19.756C27.8492 18.3165 28.4324 17.453 28.6853 16.8173C29.0501 15.9011 29.4268 15.2852 30.5424 13.7809C31.7075 12.2095 30.6029 13.487 29.023 15.5383ZM34.9605 17.3977C34.9062 17.5698 33.591 19.6418 32.038 22.002C30.4848 24.3623 28.6104 27.2424 27.8725 28.4023C26.2464 30.9585 25.7961 31.4988 24.4717 32.4836L23.4449 33.2472L22.1938 35.8157C20.6915 38.8996 20.0217 40.001 19.6488 40.001C18.9567 40.001 19.6129 36.6943 20.7793 34.3048C21.6349 32.5521 22.592 31.1771 24.8391 28.4726C25.7707 27.3514 27.0084 25.7064 27.5895 24.8172C28.1706 23.928 28.9791 22.6939 29.3862 22.0749C29.8477 21.373 30.7995 20.2878 31.9141 19.1928C33.8873 17.254 34.0928 17.097 34.6653 17.0897C35.0098 17.0853 35.0469 17.1241 34.9605 17.3977ZM30.5887 21.6267C30.3319 21.951 29.6152 23.0387 28.996 24.044C27.7204 26.1147 27.3274 26.6471 25.0806 29.3458C23.2016 31.603 22.0646 33.2736 21.3305 34.8557C20.8021 35.9943 20.2791 37.5778 20.3935 37.6928C20.4269 37.7264 20.9608 36.6936 21.5801 35.3978C22.7801 32.8865 22.9023 32.7108 24.0335 31.8677C25.1515 31.0343 25.9288 30.1126 27.134 28.1914C27.7404 27.2248 29.2656 24.8614 30.5236 22.9392L32.8108 19.4444L31.9331 20.2407C31.4504 20.6787 30.8454 21.3025 30.5887 21.6267Z" fill="#8FB5CB" fill-opacity="0.3"/>
<path d="M24.728 5.73798C24.4011 6.0245 23.5202 6.55171 22.7704 6.90952C21.4319 7.5485 21.3526 7.61472 18.3543 10.6002C16.6751 12.2722 14.9992 14.0199 14.63 14.4838C13.9646 15.3201 12.305 18.1442 10.2511 21.9351C8.68155 24.8323 8.79676 24.8068 10.5695 21.8648C11.4314 20.4343 12.4273 18.8537 12.7825 18.3522C13.7649 16.9654 15.6656 14.8114 17.5602 12.9373C18.4985 12.0094 19.7268 10.6435 20.29 9.9017C21.4541 8.36898 22.1082 7.75179 23.8299 6.56198C24.497 6.10098 25.2316 5.51303 25.4624 5.25561C25.9143 4.75131 25.6734 4.90948 24.728 5.73798Z" fill="#8FB5CB" fill-opacity="0.3"/>
<path d="M27.9093 8.16035C27.1018 8.90787 26.021 9.81397 25.5075 10.174C24.7607 10.6974 24.0866 11.435 22.1388 13.859C20.7997 15.5259 18.7328 18.0565 17.5458 19.4827C15.3149 22.1632 13.6525 24.3898 12.7565 25.8974C11.7991 27.5083 10.9465 29.481 10.8856 30.2257L10.8277 30.9329L11.4028 29.9895C11.7193 29.4706 12.5895 28.3712 13.3369 27.5464C16.8857 23.6296 19.1047 20.7802 20.4067 18.4676C20.6097 18.107 21.3793 17.158 22.1167 16.3587C22.9175 15.491 24.0419 14.0277 24.9075 12.7264C25.7317 11.4877 26.9372 9.91028 27.7011 9.07109C30.3704 6.13838 30.4448 5.81319 27.9093 8.16035Z" fill="#8FB5CB" fill-opacity="0.3"/>
<path d="M29.023 15.5383C28.1593 16.6595 27.0278 18.2124 26.5085 18.9892C25.5647 20.401 24.8935 21.1184 24.1599 21.5C23.6411 21.7696 22.9428 22.5499 21.2546 24.7469C18.7711 27.9784 17.062 30.6479 15.9443 33.0418C15.6192 33.7377 15.1912 34.5229 14.993 34.7866C14.6521 35.2403 14.2613 36.1679 14.3672 36.2718C14.3941 36.2982 15.706 34.5421 17.2825 32.3696C21.4165 26.6727 24.835 22.0943 26.7005 19.756C27.8492 18.3165 28.4324 17.453 28.6853 16.8173C29.0501 15.9011 29.4268 15.2852 30.5424 13.7809C31.7075 12.2095 30.6029 13.487 29.023 15.5383Z" fill="#8FB5CB" fill-opacity="0.3"/>
<path d="M30.5887 21.6267C30.3319 21.951 29.6152 23.0387 28.996 24.044C27.7204 26.1147 27.3274 26.6471 25.0806 29.3458C23.2016 31.603 22.0646 33.2736 21.3305 34.8557C20.8021 35.9943 20.2791 37.5778 20.3935 37.6928C20.4269 37.7264 20.9608 36.6936 21.5801 35.3978C22.7801 32.8865 22.9023 32.7108 24.0335 31.8677C25.1515 31.0343 25.9288 30.1126 27.134 28.1914C27.7404 27.2248 29.2656 24.8614 30.5236 22.9392L32.8108 19.4444L31.9331 20.2407C31.4504 20.6787 30.8454 21.3025 30.5887 21.6267Z" fill="#8FB5CB" fill-opacity="0.3"/>
</svg>
