<svg width="200" height="200" viewBox="0 0 200 200" fill="none" xmlns="http://www.w3.org/2000/svg">
<path d="M185.547 100.001C185.547 147.248 147.246 185.549 99.9993 185.549C52.7524 185.549 14.4512 147.248 14.4512 100.001C14.4512 52.7543 52.7524 14.4531 99.9993 14.4531C147.246 14.4531 185.547 52.7543 185.547 100.001Z" fill="#FFEAA5"/>
<path d="M167.578 100.001C167.578 137.324 137.322 167.581 99.9993 167.581C62.6764 167.581 32.4202 137.324 32.4202 100.001C32.4202 62.6786 62.6764 32.4224 99.9993 32.4224C137.322 32.4224 167.578 62.6786 167.578 100.001Z" fill="#FFE077"/>
<path fill-rule="evenodd" clip-rule="evenodd" d="M91.0779 0.204624C90.1111 0.277281 87.4743 0.612052 85.2184 0.948775C53.6129 5.66447 26.0508 25.3921 11.2111 53.9199C-5.48914 86.0242 -3.4102 124.985 16.6108 155.119C20.6808 161.244 24.0988 165.416 29.3411 170.659C48.3382 189.656 73.1753 199.939 100.062 199.939C122.697 199.939 143.119 192.952 161.586 178.889C166.177 175.392 174.185 167.53 177.943 162.829C189.076 148.902 196.392 132.279 199.089 114.782C199.967 109.089 200.288 96.192 199.698 90.3587C197.324 66.8892 187.336 45.769 170.784 29.2164C154.622 13.0548 134.216 3.17693 111.502 0.519863C107.016 -0.00475425 96.1096 -0.173116 91.0779 0.204624ZM106.898 19.4682C127.525 21.3417 146.708 30.9488 160.325 46.226C174.703 62.3571 182.248 84.5203 180.577 105.719C179.018 125.492 170.955 143.091 157.094 156.973C145.878 168.208 131.798 175.813 116.246 179.038C89.9376 184.494 62.4294 176.26 43.1917 157.172C29.3321 143.421 21.1511 125.588 19.5249 105.584C17.9456 86.1535 24.4484 65.3407 37.0814 49.394C39.8994 45.8365 45.9558 39.7794 49.5066 36.9665C65.8912 23.9866 86.722 17.6353 106.898 19.4682ZM50.6058 53.941C35.0865 70.1099 28.859 94.6748 34.6396 116.922C43.1913 149.836 75.1827 171.411 108.803 166.936C122.645 165.094 136.313 158.72 145.538 149.804C147.213 148.185 147.689 147.587 146.743 148.288C138.901 154.102 130.598 157.985 121.082 160.289C109.461 163.103 95.7299 162.468 84.1196 158.578C62.6376 151.381 45.6526 133.19 40.1248 111.461C38.4056 104.703 37.8373 99.3432 38.074 92.1251C38.3791 82.8203 39.849 76.0768 43.3952 67.7107C45.4647 62.8286 47.464 59.2746 50.5945 54.9113C51.7867 53.2499 52.7199 51.8901 52.668 51.8901C52.6164 51.8901 51.6883 52.8132 50.6058 53.941Z" fill="#FFD05B"/>
<path fill-rule="evenodd" clip-rule="evenodd" d="M126.949 196.33C121.48 197.205 115.871 197.66 110.156 197.66C51.906 197.66 4.68537 150.439 4.68537 92.1895C4.68537 76.9576 7.91426 62.4798 13.7249 49.4033C5.00077 64.2466 -0.00219727 81.5401 -0.00219727 100.002C-0.00219727 155.231 44.77 200.004 99.9992 200.004C109.337 200.004 118.375 198.724 126.949 196.33Z" fill="#FFC244"/>
</svg>
